<svg xmlns="http://www.w3.org/2000/svg" width="603" height="1241" viewBox="0 0 603 1241" fill="none"><g clip-path="url(#clip0_1_82)"><path d="M195.591 -3.11575e-06L124.311 53.9169L690.089 258.397L400.21 685.968L710 762.124L710 761.203L401.68 685.406L691.482 257.945L126.174 53.635L197.082 -3.18092e-06L195.591 -3.11575e-06Z" fill="#FF5500"></path><mask id="mask0_1_82" style="mask-type:luminance" maskUnits="userSpaceOnUse" x="124" y="0" width="586" height="763"><path d="M195.591 -3.11575e-06L124.311 53.9169L690.089 258.397L400.21 685.968L710 762.124L710 761.203L401.68 685.406L691.482 257.945L126.174 53.635L197.082 -3.18092e-06L195.591 -3.11575e-06Z" fill="white"></path></mask><g mask="url(#mask0_1_82)"><path d="M124.311 762.124L124.311 0L709.998 -2.56012e-05L709.998 762.124L124.311 762.124Z" fill="#FF5500"></path></g><path d="M183.287 -2.95011e-06L115.796 47.8576L675.002 269.643L372.078 688.094L710 782.281L710 781.35L373.562 687.578L676.408 269.233L117.667 47.6342L184.842 -3.01807e-06L183.287 -2.95011e-06Z" fill="#FF5500"></path><mask id="mask1_1_82" style="mask-type:luminance" maskUnits="userSpaceOnUse" x="115" y="0" width="595" height="783"><path d="M183.287 -2.95011e-06L115.796 47.8576L675.002 269.643L372.078 688.094L710 782.281L710 781.35L373.562 687.578L676.408 269.233L117.667 47.6342L184.842 -3.01807e-06L183.287 -2.95011e-06Z" fill="white"></path></mask><g mask="url(#mask1_1_82)"><path d="M115.796 782.281L115.796 0L709.998 -2.59734e-05L709.998 782.281L115.796 782.281Z" fill="#FF5500"></path></g><path d="M171.436 -2.78905e-06L107.63 42.3549L659.733 281.233L344.049 690.171L710 804.414L710 803.472L345.55 689.7L661.149 280.87L109.504 42.1901L173.062 -2.86011e-06L171.436 -2.78905e-06Z" fill="#FF5500"></path><mask id="mask2_1_82" style="mask-type:luminance" maskUnits="userSpaceOnUse" x="107" y="0" width="603" height="805"><path d="M171.436 -2.78905e-06L107.63 42.3549L659.733 281.233L344.049 690.171L710 804.414L710 803.472L345.55 689.7L661.149 280.87L109.504 42.1901L173.062 -2.86011e-06L171.436 -2.78905e-06Z" fill="white"></path></mask><g mask="url(#mask2_1_82)"><path d="M107.63 804.414L107.63 0L709.998 -2.63303e-05L709.998 804.414L107.63 804.414Z" fill="#FF5500"></path></g><path d="M710 1186.43L678.826 1241L679.86 1241L710 1188.24L710 1186.43ZM160.119 -2.63683e-06L99.7957 37.4213L644.272 293.168L316.13 692.201L710 828.593L710 827.644L317.642 691.776L645.697 292.847L101.674 37.3114L161.82 -2.71115e-06L160.117 -2.63675e-06L160.119 -2.63683e-06Z" fill="#FF5500"></path><mask id="mask3_1_82" style="mask-type:luminance" maskUnits="userSpaceOnUse" x="99" y="0" width="611" height="1241"><path d="M710 1186.43L678.826 1241L679.86 1241L710 1188.24L710 1186.43ZM160.119 -2.63683e-06L99.7957 37.4213L644.272 293.168L316.13 692.201L710 828.593L710 827.644L317.642 691.776L645.697 292.847L101.674 37.3114L161.82 -2.71115e-06L160.117 -2.63675e-06L160.119 -2.63683e-06Z" fill="white"></path></mask><g mask="url(#mask3_1_82)"><path d="M99.7938 1241L99.7937 0L709.998 -2.66729e-05L709.998 1241L99.7938 1241Z" fill="#FF5500"></path></g><path d="M710 1129.74L641.812 1241L642.866 1241L710 1131.46L710 1129.74L710 1129.74ZM149.424 -2.49819e-06L92.2719 33.0621L628.603 305.435L288.313 694.187L709.998 854.904L709.998 853.945L289.838 693.809L630.037 305.159L94.1532 33.0124L151.218 -2.57662e-06L149.424 -2.49819e-06Z" fill="#FF5500"></path><mask id="mask4_1_82" style="mask-type:luminance" maskUnits="userSpaceOnUse" x="92" y="0" width="618" height="1242"><path d="M710 1129.74L641.812 1241L642.866 1241L710 1131.46L710 1129.74L710 1129.74ZM149.424 -2.49819e-06L92.2719 33.0621L628.603 305.435L288.313 694.187L709.998 854.904L709.998 853.945L289.838 693.809L630.037 305.159L94.1532 33.0124L151.218 -2.57662e-06L149.424 -2.49819e-06Z" fill="white"></path></mask><g mask="url(#mask4_1_82)"><path d="M92.2719 1241L92.2719 0L710 -2.70018e-05L710 1241L92.2719 1241Z" fill="#FF5500"></path></g><path d="M710 1081.45L605.32 1241L606.394 1241L710 1083.08L710 1081.45ZM139.477 -2.37941e-06L85.0427 29.2914L612.721 318.031L260.607 696.13L709.998 883.438L709.998 882.467L262.142 695.8L614.164 317.798L86.9241 29.2985L141.369 -2.46211e-06L139.477 -2.37941e-06Z" fill="#FF5500"></path><mask id="mask5_1_82" style="mask-type:luminance" maskUnits="userSpaceOnUse" x="85" y="0" width="625" height="1241"><path d="M710 1081.45L605.32 1241L606.394 1241L710 1083.08L710 1081.45ZM139.477 -2.37941e-06L85.0427 29.2914L612.721 318.031L260.607 696.13L709.998 883.438L709.998 882.467L262.142 695.8L614.164 317.798L86.9241 29.2985L141.369 -2.46211e-06L139.477 -2.37941e-06Z" fill="white"></path></mask><g mask="url(#mask5_1_82)"><path d="M85.0447 1241L85.0447 0L710 -2.73177e-05L710 1241L85.0447 1241Z" fill="#FF5500"></path></g><path d="M710 1040.38L569.351 1241L570.448 1241L710.002 1041.95L710.002 1040.38L710 1040.38ZM130.42 -2.28739e-06L78.0903 26.1146L596.616 330.947L233.011 698.039L709.998 914.309L709.998 913.322L234.557 697.754L598.067 330.761L79.97 26.1802L132.427 -2.37514e-06L130.42 -2.28739e-06Z" fill="#FF5500"></path><mask id="mask6_1_82" style="mask-type:luminance" maskUnits="userSpaceOnUse" x="78" y="0" width="633" height="1241"><path d="M710 1040.38L569.351 1241L570.448 1241L710.002 1041.95L710.002 1040.38L710 1040.38ZM130.42 -2.28739e-06L78.0903 26.1146L596.616 330.947L233.011 698.039L709.998 914.309L709.998 913.322L234.557 697.754L598.067 330.761L79.97 26.1802L132.427 -2.37514e-06L130.42 -2.28739e-06Z" fill="white"></path></mask><g mask="url(#mask6_1_82)"><path d="M78.0904 1241L78.0903 0L709.998 -2.76216e-05L709.998 1241L78.0904 1241Z" fill="#FF5500"></path></g><path d="M710 1005.61L533.914 1241L535.034 1241L709.998 1007.11L709.998 1005.61L710 1005.61ZM122.447 -2.23153e-06L71.3955 23.5441L580.278 344.181L205.527 699.915L710 947.634L710 946.632L207.083 699.677L581.735 344.037L73.2734 23.6647L124.586 -2.32502e-06L122.445 -2.23145e-06L122.447 -2.23153e-06Z" fill="#FF5500"></path><mask id="mask7_1_82" style="mask-type:luminance" maskUnits="userSpaceOnUse" x="71" y="0" width="639" height="1241"><path d="M710 1005.61L533.914 1241L535.034 1241L709.998 1007.11L709.998 1005.61L710 1005.61ZM122.447 -2.23153e-06L71.3955 23.5441L580.278 344.181L205.527 699.915L710 947.634L710 946.632L207.083 699.677L581.735 344.037L73.2734 23.6647L124.586 -2.32502e-06L122.445 -2.23145e-06L122.447 -2.23153e-06Z" fill="white"></path></mask><g mask="url(#mask7_1_82)"><path d="M71.3956 1241L71.3955 0L710 -2.79143e-05L710 1241L71.3956 1241Z" fill="#FF5500"></path></g><path d="M115.796 -2.223e-06L64.9402 21.5817L563.697 357.719L178.156 701.758L705.976 981.421L499.021 1241L500.169 1241L707.354 981.134L179.714 701.569L565.154 357.62L66.8163 21.7625L118.095 -2.32347e-06L115.796 -2.223e-06Z" fill="#FF5500"></path><mask id="mask8_1_82" style="mask-type:luminance" maskUnits="userSpaceOnUse" x="64" y="0" width="644" height="1241"><path d="M115.796 -2.223e-06L64.9402 21.5817L563.697 357.719L178.156 701.758L705.976 981.421L499.021 1241L500.169 1241L707.354 981.134L179.714 701.569L565.154 357.62L66.8163 21.7625L118.095 -2.32347e-06L115.796 -2.223e-06Z" fill="white"></path></mask><g mask="url(#mask8_1_82)"><path d="M64.9402 1241L64.9402 0L707.354 -2.80808e-05L707.354 1241L64.9402 1241Z" fill="#FF5500"></path></g><path d="M110.8 -2.27715e-06L58.7048 20.2397L546.86 371.558L150.895 703.574L669.845 999.34L464.687 1241L465.862 1241L671.227 999.095L152.462 703.434L548.324 371.504L60.5738 20.4772L113.28 -2.38554e-06L110.8 -2.27715e-06Z" fill="#FF5500"></path><mask id="mask9_1_82" style="mask-type:luminance" maskUnits="userSpaceOnUse" x="58" y="0" width="614" height="1241"><path d="M110.8 -2.27715e-06L58.7048 20.2397L546.86 371.558L150.895 703.574L669.845 999.34L464.687 1241L465.862 1241L671.227 999.095L152.462 703.434L548.324 371.504L60.5738 20.4772L113.28 -2.38554e-06L110.8 -2.27715e-06Z" fill="white"></path></mask><g mask="url(#mask9_1_82)"><path d="M58.7049 1241L58.7048 0L671.227 -2.67742e-05L671.227 1241L58.7049 1241Z" fill="#FF5500"></path></g><path d="M107.893 -2.41378e-06L52.672 19.5199L529.764 385.688L123.75 705.369L633.333 1016.95L430.93 1241L432.141 1241L634.725 1016.75L125.321 705.275L531.227 385.679L54.5321 19.816L110.589 -2.53163e-06L107.893 -2.41378e-06Z" fill="#FF5500"></path><mask id="mask10_1_82" style="mask-type:luminance" maskUnits="userSpaceOnUse" x="52" y="0" width="583" height="1241"><path d="M107.893 -2.41378e-06L52.672 19.5199L529.764 385.688L123.75 705.369L633.333 1016.95L430.93 1241L432.141 1241L634.725 1016.75L125.321 705.275L531.227 385.679L54.5321 19.816L110.589 -2.53163e-06L107.893 -2.41378e-06Z" fill="white"></path></mask><g mask="url(#mask10_1_82)"><path d="M52.6721 1241L52.672 0L634.725 -2.54423e-05L634.725 1241L52.6721 1241Z" fill="#FF5500"></path></g><path d="M107.698 -2.66088e-06L46.8237 19.4348L512.397 400.101L96.718 707.142L596.452 1034.25L397.779 1241L399.025 1241L597.851 1034.1L98.2906 707.098L513.859 400.138L48.6696 19.7858L110.646 -2.78975e-06L107.698 -2.66088e-06Z" fill="#FF5500"></path><mask id="mask11_1_82" style="mask-type:luminance" maskUnits="userSpaceOnUse" x="46" y="0" width="552" height="1241"><path d="M107.698 -2.66088e-06L46.8237 19.4348L512.397 400.101L96.718 707.142L596.452 1034.25L397.779 1241L399.025 1241L597.851 1034.1L98.2906 707.098L513.859 400.138L48.6696 19.7858L110.646 -2.78975e-06L107.698 -2.66088e-06Z" fill="white"></path></mask><g mask="url(#mask11_1_82)"><path d="M46.8238 1241L46.8237 0L597.851 -2.40862e-05L597.851 1241L46.8238 1241Z" fill="#FF5500"></path></g><path d="M111.086 -3.05772e-06L41.1333 19.9844L494.749 414.79L69.8016 708.899L559.213 1051.23L365.261 1241L366.546 1241L560.617 1051.11L71.3741 708.904L496.211 414.87L42.9685 20.3904L114.35 -3.20039e-06L111.086 -3.05772e-06Z" fill="#FF5500"></path><mask id="mask12_1_82" style="mask-type:luminance" maskUnits="userSpaceOnUse" x="41" y="0" width="520" height="1241"><path d="M111.086 -3.05772e-06L41.1333 19.9844L494.749 414.79L69.8016 708.899L559.213 1051.23L365.261 1241L366.546 1241L560.617 1051.11L71.3741 708.904L496.211 414.87L42.9685 20.3904L114.35 -3.20039e-06L111.086 -3.05772e-06Z" fill="white"></path></mask><g mask="url(#mask12_1_82)"><path d="M41.1334 1241L41.1333 0L560.617 -2.27074e-05L560.617 1241L41.1334 1241Z" fill="#FF5500"></path></g><path d="M119.38 -3.66271e-06L35.5868 21.1721L476.815 429.745L43.0024 710.643L521.628 1067.86L333.417 1241L334.739 1241L523.03 1067.79L44.5732 710.697L478.272 429.869L37.4096 21.6384L123.045 -3.82292e-06L119.38 -3.66271e-06Z" fill="#FF5500"></path><mask id="mask13_1_82" style="mask-type:luminance" maskUnits="userSpaceOnUse" x="35" y="0" width="489" height="1241"><path d="M119.38 -3.66271e-06L35.5868 21.1721L476.815 429.745L43.0024 710.643L521.628 1067.86L333.417 1241L334.739 1241L523.03 1067.79L44.5732 710.697L478.272 429.869L37.4096 21.6384L123.045 -3.82292e-06L119.38 -3.66271e-06Z" fill="white"></path></mask><g mask="url(#mask13_1_82)"><path d="M35.5868 1241L35.5868 0L523.03 -2.13068e-05L523.03 1241L35.5868 1241Z" fill="#FF5500"></path></g><path d="M134.656 -5.1728e-06L30.1627 23.007L458.585 444.957L16.3167 712.379L483.7 1084.15L302.287 1241L303.661 1241L485.107 1084.12L17.8857 712.48L460.039 445.127L31.9713 23.5264L138.822 -5.35489e-06L134.656 -5.1728e-06Z" fill="#FF5500"></path><mask id="mask14_1_82" style="mask-type:luminance" maskUnits="userSpaceOnUse" x="16" y="0" width="470" height="1241"><path d="M134.656 -5.1728e-06L30.1627 23.007L458.585 444.957L16.3167 712.379L483.7 1084.15L302.287 1241L303.661 1241L485.107 1084.12L17.8857 712.48L460.039 445.127L31.9713 23.5264L138.822 -5.35489e-06L134.656 -5.1728e-06Z" fill="white"></path></mask><g mask="url(#mask14_1_82)"><path d="M16.3167 1241L16.3167 0L485.107 -2.04915e-05L485.107 1241L16.3167 1241Z" fill="#FF5500"></path></g><path d="M3.15942e-05 722.792L445.447 1100.08L271.936 1241L273.358 1241L446.851 1100.1L3.15429e-05 721.617L3.15942e-05 722.792ZM160.325 -7.00803e-06L24.8415 25.4888L440.053 460.416L3.09622e-05 708.332L3.10073e-05 709.363L441.498 460.632L26.6324 26.0667L165.187 -7.22054e-06L160.325 -7.00803e-06Z" fill="#FF5500"></path><mask id="mask15_1_82" style="mask-type:luminance" maskUnits="userSpaceOnUse" x="0" y="0" width="447" height="1242"><path d="M3.15942e-05 722.792L445.447 1100.08L271.936 1241L273.358 1241L446.851 1100.1L3.15429e-05 721.617L3.15942e-05 722.792ZM160.325 -7.00803e-06L24.8415 25.4888L440.053 460.416L3.09622e-05 708.332L3.10073e-05 709.363L441.498 460.632L26.6324 26.0667L165.187 -7.22054e-06L160.325 -7.00803e-06Z" fill="white"></path></mask><g mask="url(#mask15_1_82)"><path d="M5.42458e-05 1241L0 0L446.853 -1.95326e-05L446.853 1241L5.42458e-05 1241Z" fill="#FF5500"></path></g><path d="M3.27363e-05 748.919L406.879 1115.64L242.429 1241L243.909 1241L408.284 1115.7L3.26834e-05 747.71L3.27362e-05 748.917L3.27363e-05 748.919ZM202.548 -8.85367e-06L19.6038 28.6213L421.207 476.114L3.04503e-05 696.621L3.04945e-05 697.633L422.645 476.374L21.3752 29.2542L208.363 -9.10783e-06L202.547 -8.85359e-06L202.548 -8.85367e-06Z" fill="#FF5500"></path><mask id="mask16_1_82" style="mask-type:luminance" maskUnits="userSpaceOnUse" x="0" y="0" width="423" height="1241"><path d="M3.27363e-05 748.919L406.879 1115.64L242.429 1241L243.909 1241L408.284 1115.7L3.26834e-05 747.71L3.27362e-05 748.917L3.27363e-05 748.919ZM202.548 -8.85367e-06L19.6038 28.6213L421.207 476.114L3.04503e-05 696.621L3.04945e-05 697.633L422.645 476.374L21.3752 29.2542L208.363 -9.10783e-06L202.547 -8.85359e-06L202.548 -8.85367e-06Z" fill="white"></path></mask><g mask="url(#mask16_1_82)"><path d="M5.42458e-05 1241L0 0L422.645 -1.84744e-05L422.645 1241L5.42458e-05 1241Z" fill="#FF5500"></path></g></g><defs><clipPath id="clip0_1_82"><rect width="1241" height="710" fill="white" transform="matrix(4.37114e-08 1 1 -4.37114e-08 0 0)"></rect></clipPath></defs></svg>