<svg xmlns="http://www.w3.org/2000/svg" width="469" height="362" viewBox="0 0 469 362" fill="none"><mask id="path-1-inside-1_407_4188" fill="white"><path fill-rule="evenodd" clip-rule="evenodd" d="M11.3252 154.841C37.9498 125.396 70.3582 102.417 107.86 88.173C264.38 28.7588 450.117 143.857 522.714 345.247C525.158 351.995 527.435 358.761 529.543 365.546C529.394 364.777 529.249 364.004 529.104 363.231C528.96 362.458 528.815 361.685 528.666 360.916C521.278 323.262 509.15 285.308 492.022 248.16C400.693 50.0505 201.82 -49.9603 47.8383 24.7854C31.1957 32.8635 15.7657 42.6659 1.58589 53.949C0.559714 63.0204 0 72.2605 0 81.5944C0 107.103 3.95543 131.712 11.3066 154.859L11.3252 154.841ZM529.373 454.922C531.355 460.375 533.187 465.829 534.907 471.301L534.459 468.891C528.475 438.075 518.546 406.979 504.448 376.555C430.31 216.647 268.871 135.928 143.874 196.271C115.472 209.98 91.4261 229.796 72.0362 254.112C87.0881 268.923 104.085 281.866 122.614 292.549C142.528 272.938 165.975 257.512 192.583 247.464C319.636 199.521 470.418 292.418 529.354 454.959L529.373 454.922ZM98.5281 112.769C237.03 45.3961 415.924 135.54 498.089 314.119L498.107 314.138C513.548 347.702 524.476 382.017 531.115 416.032C531.357 417.328 531.6 418.642 531.842 419.956C531.833 419.918 531.824 419.885 531.814 419.853C531.805 419.82 531.796 419.787 531.786 419.749C529.903 413.705 527.87 407.679 525.707 401.653C460.4 220.127 293.329 116.373 152.515 169.93C115.349 184.066 83.7399 207.756 58.5273 238.298C42.7134 219.695 29.6409 198.764 19.9251 176.106C41.2216 149.525 67.5531 127.843 98.5281 112.769Z"></path></mask><path d="M107.86 88.173L106.441 84.4334L106.44 84.4337L107.86 88.173ZM11.3252 154.841L14.1593 157.663L14.2274 157.595L14.2922 157.523L11.3252 154.841ZM522.714 345.247L518.951 346.604L518.953 346.61L522.714 345.247ZM529.543 365.546L525.723 366.733L533.47 364.783L529.543 365.546ZM528.666 360.916L532.593 360.154L532.591 360.146L528.666 360.916ZM492.022 248.16L488.39 249.835L488.39 249.835L492.022 248.16ZM47.8383 24.7854L49.585 28.3839L49.5851 28.3838L47.8383 24.7854ZM1.58589 53.949L-0.904699 50.819L-2.20236 51.8515L-2.38876 53.4993L1.58589 53.949ZM11.3066 154.859L7.4942 156.07L9.48931 162.352L14.1407 157.682L11.3066 154.859ZM534.907 471.301L531.091 472.5L538.84 470.568L534.907 471.301ZM529.373 454.922L533.132 453.555L529.943 444.781L525.79 453.142L529.373 454.922ZM534.459 468.891L538.391 468.159L538.388 468.144L538.385 468.129L534.459 468.891ZM504.448 376.555L508.077 374.873L508.077 374.873L504.448 376.555ZM143.874 196.271L145.613 199.874L145.613 199.874L143.874 196.271ZM72.0362 254.112L68.9087 251.619L66.662 254.436L69.2307 256.964L72.0362 254.112ZM122.614 292.549L120.617 296.014L123.253 297.534L125.421 295.399L122.614 292.549ZM192.583 247.464L191.171 243.721L191.17 243.722L192.583 247.464ZM529.354 454.959L525.594 456.322L528.779 465.108L532.936 456.738L529.354 454.959ZM498.089 314.119L494.455 315.791L494.751 316.435L495.251 316.938L498.089 314.119ZM98.5281 112.769L96.7784 109.172L96.7778 109.172L98.5281 112.769ZM498.107 314.138L501.741 312.466L501.445 311.821L500.945 311.318L498.107 314.138ZM531.115 416.032L535.047 415.297L535.044 415.281L535.041 415.266L531.115 416.032ZM531.842 419.956L527.959 420.916L535.776 419.23L531.842 419.956ZM531.814 419.853L527.965 420.939L527.966 420.946L531.814 419.853ZM531.786 419.749L535.668 418.784L535.64 418.671L535.605 418.559L531.786 419.749ZM525.707 401.653L529.472 400.302L529.471 400.299L525.707 401.653ZM152.515 169.93L153.937 173.669L153.937 173.669L152.515 169.93ZM58.5273 238.298L55.4796 240.889L58.5722 244.527L61.612 240.845L58.5273 238.298ZM19.9251 176.106L16.8034 173.605L15.3033 175.478L16.2488 177.683L19.9251 176.106ZM106.44 84.4337C68.3047 98.9186 35.3768 122.277 8.35827 152.158L14.2922 157.523C40.5227 128.514 72.4117 105.916 109.281 91.9124L106.44 84.4337ZM526.477 343.891C453.46 141.335 265.874 23.9129 106.441 84.4334L109.28 91.9127C262.885 33.6047 446.774 146.38 518.951 346.604L526.477 343.891ZM533.363 364.359C531.236 357.514 528.94 350.69 526.475 343.885L518.953 346.61C521.377 353.3 523.633 360.007 525.723 366.733L533.363 364.359ZM525.173 363.966C525.317 364.737 525.464 365.524 525.616 366.308L533.47 364.783C533.323 364.03 533.181 363.271 533.036 362.496L525.173 363.966ZM524.739 361.679C524.886 362.431 525.028 363.191 525.173 363.966L533.036 362.496C532.892 361.725 532.745 360.938 532.593 360.154L524.739 361.679ZM488.39 249.835C505.385 286.695 517.414 324.345 524.741 361.686L532.591 360.146C525.141 322.179 512.916 283.922 495.655 246.486L488.39 249.835ZM49.5851 28.3838C200.765 -45.0014 397.585 52.8634 488.39 249.835L495.655 246.486C403.801 47.2376 202.876 -54.9192 46.0916 21.1869L49.5851 28.3838ZM4.07648 57.079C18.0323 45.9742 33.2135 36.3303 49.585 28.3839L46.0917 21.1869C29.1778 29.3966 13.4992 39.3576 -0.904699 50.819L4.07648 57.079ZM4 81.5944C4 72.4201 4.55016 63.3304 5.56054 54.3986L-2.38876 53.4993C-3.43074 62.7105 -4 72.1009 -4 81.5944H4ZM15.1189 153.649C7.89061 130.888 4 106.687 4 81.5944H-4C-4 107.519 0.020249 132.536 7.4942 156.07L15.1189 153.649ZM8.49109 152.018L8.47244 152.037L14.1407 157.682L14.1593 157.663L8.49109 152.018ZM538.723 470.101C536.987 464.579 535.136 459.069 533.132 453.555L525.613 456.288C527.573 461.681 529.387 467.078 531.091 472.5L538.723 470.101ZM530.526 469.624L530.975 472.033L538.84 470.568L538.391 468.159L530.526 469.624ZM500.819 378.237C514.781 408.368 524.61 439.156 530.532 469.654L538.385 468.129C532.34 436.995 522.311 405.59 508.077 374.873L500.819 378.237ZM145.613 199.874C267.826 140.874 427.215 219.48 500.819 378.238L508.077 374.873C433.406 213.814 269.916 130.982 142.135 192.669L145.613 199.874ZM75.1636 256.606C94.2041 232.728 117.785 213.305 145.613 199.874L142.135 192.669C113.159 206.655 88.648 226.864 68.9087 251.619L75.1636 256.606ZM124.612 289.083C106.376 278.57 89.6513 265.833 74.8416 251.261L69.2307 256.964C84.525 272.012 101.793 285.162 120.617 296.014L124.612 289.083ZM191.17 243.722C164.013 253.977 140.097 269.718 119.808 289.698L125.421 295.399C144.959 276.159 167.937 261.046 193.996 251.206L191.17 243.722ZM533.114 453.595C473.75 289.872 321.117 194.687 191.171 243.721L193.995 251.206C318.156 204.355 467.086 294.963 525.594 456.322L533.114 453.595ZM525.79 453.142L525.772 453.179L532.936 456.738L532.955 456.701L525.79 453.142ZM501.722 312.447C419.036 132.734 238.09 40.4324 96.7784 109.172L100.278 116.366C235.97 50.3598 412.811 138.345 494.455 315.791L501.722 312.447ZM500.945 311.318L500.926 311.3L495.251 316.938L495.27 316.957L500.945 311.318ZM535.041 415.266C528.341 380.938 517.315 346.319 501.741 312.466L494.473 315.809C509.781 349.085 520.611 383.096 527.189 416.799L535.041 415.266ZM535.776 419.23C535.534 417.917 535.29 416.598 535.047 415.297L527.183 416.768C527.424 418.058 527.666 419.367 527.909 420.682L535.776 419.23ZM527.966 420.946C527.969 420.955 527.97 420.958 527.971 420.961C527.972 420.963 527.971 420.962 527.97 420.959C527.968 420.952 527.964 420.937 527.959 420.916L535.725 418.996C535.697 418.883 535.67 418.787 535.662 418.759L527.966 420.946ZM527.905 420.715C527.931 420.821 527.957 420.911 527.965 420.939L535.664 418.766C535.661 418.757 535.66 418.753 535.659 418.75C535.658 418.747 535.658 418.747 535.659 418.749C535.66 418.754 535.664 418.766 535.668 418.784L527.905 420.715ZM521.942 403.005C524.088 408.982 526.102 414.954 527.967 420.939L535.605 418.559C533.703 412.455 531.652 406.375 529.472 400.302L521.942 403.005ZM153.937 173.669C291.829 121.223 457.054 222.641 521.943 403.007L529.471 400.299C463.747 217.613 294.829 111.523 151.093 166.191L153.937 173.669ZM61.612 240.845C86.4205 210.792 117.472 187.538 153.937 173.669L151.093 166.191C113.226 180.594 81.0593 204.72 55.4425 235.752L61.612 240.845ZM16.2488 177.683C26.1252 200.715 39.4116 221.987 55.4796 240.889L61.5749 235.707C46.0153 217.403 33.1566 196.813 23.6014 174.53L16.2488 177.683ZM96.7778 109.172C65.2372 124.522 38.4466 146.591 16.8034 173.605L23.0468 178.607C43.9965 152.459 69.869 131.165 100.278 116.366L96.7778 109.172Z" fill="url(#paint0_linear_407_4188)" mask="url(#path-1-inside-1_407_4188)"></path><defs><linearGradient id="paint0_linear_407_4188" x1="178.134" y1="117.513" x2="588.579" y2="282.564" gradientUnits="userSpaceOnUse"><stop stop-color="#FD7E14"></stop><stop offset="1" stop-color="#DC3545"></stop></linearGradient></defs></svg>